<svg width="37" height="38" viewBox="0 0 37 38" fill="none" xmlns="http://www.w3.org/2000/svg">
<path d="M18.5007 22.3841C21.9016 22.3841 24.6673 19.6184 24.6673 16.2174C24.6673 12.8165 21.9016 10.0508 18.5007 10.0508C15.0997 10.0508 12.334 12.8165 12.334 16.2174C12.334 19.6184 15.0997 22.3841 18.5007 22.3841ZM18.5007 13.1341C20.2011 13.1341 21.584 14.517 21.584 16.2174C21.584 17.9179 20.2011 19.3008 18.5007 19.3008C16.8002 19.3008 15.4173 17.9179 15.4173 16.2174C15.4173 14.517 16.8002 13.1341 18.5007 13.1341Z" fill="#009C37"/>
<path d="M17.6053 34.4306C17.8736 34.6218 18.1865 34.7174 18.4995 34.7174C18.8124 34.7174 19.1254 34.6218 19.3937 34.4306C19.8623 34.0992 30.8775 26.1457 30.8328 16.2174C30.8328 9.41708 25.2998 3.88403 18.4995 3.88403C11.6992 3.88403 6.16615 9.41707 6.16615 16.2097C6.12144 26.1457 17.1367 34.0992 17.6053 34.4306ZM18.4995 6.96737C23.6009 6.96737 27.7495 11.116 27.7495 16.2251C27.7819 23.067 20.9847 29.2105 18.4995 31.2255C16.0159 29.209 9.21711 23.0639 9.24948 16.2174C9.24948 11.116 13.3981 6.96737 18.4995 6.96737Z" fill="#009C37"/>
</svg>
