<svg width="39" height="39" viewBox="0 0 39 39" fill="none" xmlns="http://www.w3.org/2000/svg">
<path d="M19.5 8.125C12.3321 8.125 6.5 13.9571 6.5 21.125C6.5 28.2929 12.3321 34.125 19.5 34.125C26.6679 34.125 32.5 28.2929 32.5 21.125C32.5 13.9571 26.6679 8.125 19.5 8.125ZM19.5 30.875C14.1229 30.875 9.75 26.5021 9.75 21.125C9.75 15.7479 14.1229 11.375 19.5 11.375C24.8771 11.375 29.25 15.7479 29.25 21.125C29.25 26.5021 24.8771 30.875 19.5 30.875Z" fill="#009C37"/>
<path d="M17.875 14.625H21.125V22.75H17.875V14.625ZM14.625 3.25H24.375V6.5H14.625V3.25Z" fill="#009C37"/>
<path d="M31.3516 12.5239L28.1021 9.27436L30.4002 6.9763L33.6497 10.2259L31.3516 12.5239Z" fill="#009C37"/>
</svg>
